<?xml version="1.0" encoding="utf-8"?>
<!-- Generator: Adobe Illustrator 19.1.0, SVG Export Plug-In . SVG Version: 6.00 Build 0)  -->
<!DOCTYPE svg PUBLIC "-//W3C//DTD SVG 1.1//EN" "http://www.w3.org/Graphics/SVG/1.1/DTD/svg11.dtd">
<svg version="1.1" id="レイヤー_1" xmlns="http://www.w3.org/2000/svg" xmlns:xlink="http://www.w3.org/1999/xlink" x="0px"
	 y="0px" viewBox="0 0 780 173" style="enable-background:new 0 0 780 173;" xml:space="preserve">
<g>
	<path d="M15.9,107.2c0,19.2,26,20.7,31.8,20.7c15.2,0,32.7-5.4,32.7-18.1c0-15.5-24.9-17-34.3-20.1C33.1,86.1,3.1,82.2,3.1,61.6
		c0-16.6,22.1-28.1,45.5-28.1c18.9,0,43.3,9.6,43.3,27.5H76c0-13.3-20.9-15.9-28.1-15.9c-12.9,0-28.3,5.7-28.3,15.1
		c0,12.3,23.2,15.1,31.9,17c13.7,3.4,45.4,8.2,45.4,31c0,19.4-22.4,31.2-49.1,31.2c-17.5,0-47.7-7.9-47.7-32.3H15.9z"/>
	<path d="M134.1,47.7h-26.5V36.1h26.5V0.5h16.2v35.6h30.2v11.6h-30.2v89.4h-16.2V47.7z"/>
	<path d="M252.4,33.5c37.4,0,66.2,25.3,66.2,53c0,27.5-28.4,53-66.2,53c-36.9,0-65.8-24.9-65.8-52.3
		C186.7,55.3,219.2,33.5,252.4,33.5z M252.7,127.9c24.5,0,49.9-15.5,49.9-41.9c0-26.6-28.2-40.8-49.9-40.8
		c-23.1,0-49.9,15.1-49.9,41.9C202.8,110.5,226.6,127.9,252.7,127.9z"/>
	<path d="M403.6,33.5c37.4,0,66.2,25.3,66.2,53c0,27.5-28.4,53-66.2,53c-36.9,0-65.8-24.9-65.8-52.3
		C337.8,55.3,370.4,33.5,403.6,33.5z M403.8,127.9c24.5,0,49.9-15.5,49.9-41.9c0-26.6-28.2-40.8-49.9-40.8
		c-23.1,0-49.9,15.1-49.9,41.9C354,110.5,377.7,127.9,403.8,127.9z"/>
	<path d="M494.1,36.1h16.2v17.7h0.5c14.5-16.6,35.5-20.3,49.2-20.3c41.3,0,67.9,25.8,67.9,52.8c0,29-28.2,53.2-67.9,53.2
		c-13.2,0-35.1-3.7-49.2-20.1h-0.5v53.2h-16.2V36.1z M559.8,45.1c-29.1,0-50.5,19.4-50.5,41.5c0,23.6,23.3,41.2,50.5,41.2
		c30.9,0,51.7-18.5,51.7-41C611.5,61.2,587.5,45.1,559.8,45.1z"/>
	<path d="M780,137.1h-16.2v-17.7h-0.5c-13.8,16.6-36,20.1-49.2,20.1c-39.7,0-67.9-24.2-67.9-53.2c0-27,26.5-52.8,67.9-52.8
		c13.6,0,35.8,3.5,49.2,20.3h0.5V36.1H780V137.1z M714.2,127.9c27.2,0,50.5-17.5,50.5-41.2c0-22.2-21.5-41.5-50.5-41.5
		c-27.7,0-51.7,16.1-51.7,41.7C662.5,109.4,683.3,127.9,714.2,127.9z"/>
</g>
</svg>
